<svg version="1.1" id="Layer_1" xmlns="http://www.w3.org/2000/svg" xmlns:xlink="http://www.w3.org/1999/xlink" x="0px" y="0px" viewBox="0 0 128.2 145.2" style="enable-background:new 0 0 128.2 145.2;" xml:space="preserve">
 <style type="text/css">
  .st0{fill:#A38E5D;}
	.st1{fill:#B6A47C;}
 </style>
 <g>
  <path class="st0" d="M94.5,133.8l-1.5,1.5l-0.2-0.4l1.4-1.4L94.5,133.8 M95.4,135.4l-1.8,1.8c0-0.2-0.1-0.3-0.1-0.5l1.8-1.8
		C95.3,135.1,95.3,135.2,95.4,135.4 M95.8,137.4l-1.4,1.4l-0.4-0.2l1.8-1.8C95.8,137,95.8,137.2,95.8,137.4 M91.9,133.3l1.1-1.2
		l0.3,0.3l-1.2,1.2C92,133.5,91.9,133.4,91.9,133.3 M90.7,132l0.9-0.9l0.4,0.2l-0.9,0.9L90.7,132 M89.7,131.1l-0.3-0.3l0.7-0.6
		l0.4,0.2L89.7,131.1z M88.3,130l-0.3-0.3l0.4-0.4c0.1,0.1,0.3,0.1,0.4,0.2L88.3,130z M87,128.9l-0.3-0.3l0.2-0.2l0.4,0.2L87,128.9z
		 M82.3,140.4l0.5,0.2l-0.3,0.3c-0.1-0.1-0.2-0.2-0.4-0.2L82.3,140.4z M84.1,141c0.2,0.1,0.3,0.1,0.5,0.1l-0.7,0.7l-0.4-0.2
		L84.1,141z M86.1,141.5l0.6,0.1l-1.1,1.1l-0.4-0.2L86.1,141.5z M88.4,141.7H89l-1.6,1.6l-0.5-0.2L88.4,141.7z M91,142.2l-1.5,1.5
		l-0.6-0.1l1.8-1.7L91,142.2z M92,143.1l0.3,0.3l-0.2,0.2c-0.2,0.1-0.5,0.1-0.8,0.1L92,143.1z M76.2,142.1l-0.3-0.3l0.5-0.5
		c0.1,0.1,0.3,0.2,0.4,0.2L76.2,142.1z M75.1,140.9l-0.3-0.3l0.2-0.2l0.4,0.3L75.1,140.9z M78.1,142.1c0.2,0.1,0.3,0.1,0.5,0.2l-1,1
		l-0.4-0.3L78.1,142.1z M80.1,142.6l0.3,0.4l-1.2,1.2l-0.4-0.2L80.1,142.6z M81.2,144c0.1,0.1,0.2,0.2,0.3,0.3l-0.2,0.2h-0.4h-0.2
		L81.2,144z M70.3,140.1c0,0.2,0.1,0.3,0.2,0.5l-0.4,0.4c-0.2,0-0.4-0.1-0.5-0.1L70.3,140.1z M68.3,140.2l-0.3-0.3l1.1-1.1
		c0.1,0.1,0.3,0.1,0.4,0.2L68.3,140.2z M66.7,138.7l0.9-0.9c0.1,0.1,0.2,0.2,0.3,0.3L67,139C66.9,138.9,66.8,138.8,66.7,138.7
		 M66,137.5c-0.1-0.1-0.2-0.3-0.2-0.4l0.6-0.6c0.1,0.1,0.2,0.2,0.3,0.3L66,137.5z M65.2,135.9c-0.1-0.1-0.1-0.3-0.2-0.4l0.3-0.3
		c0.1,0.1,0.1,0.3,0.2,0.4L65.2,135.9z M64.5,134.1c0,0,0-0.1,0-0.1l-0.1-0.4l0.1-0.1l0.2,0.4L64.5,134.1z M40,122.2
		c0.2,0,2.3-0.1,3.3-0.1c0.7,0,2.5,0.1,2.4,1.3c0,0.2,0,0.5-0.1,0.7c-0.2-0.5-0.7-0.8-1.2-0.8c-0.5,0-2.8,0.7-3.5,0.7
		s-0.7-0.4-1.2-0.4c-0.6,0-1.1,0.3-1.3,0.8c-0.3-0.9,0.2-1.9,1.1-2.2C39.7,122.2,39.9,122.2,40,122.2 M32.3,121.3l-0.4-0.4l0.3-0.3
		l0.3,0.3C32.4,121,32.4,121.2,32.3,121.3 M31.4,123l-0.9-0.8c0.1-0.1,0.2-0.2,0.3-0.3l0.7,0.8C31.6,122.7,31.5,122.9,31.4,123
		 M30.6,124.6l-1.1-1.2l0.3-0.3l1.1,1.1L30.6,124.6 M29.7,126.2l-1.4-1.4c0.1-0.1,0.2-0.2,0.3-0.4l1.3,1.3
		C29.8,126,29.8,126.1,29.7,126.2 M28.8,127.8l-1.5-1.5l0.2-0.4l1.5,1.5C29,127.5,28.9,127.7,28.8,127.8 M27.9,129.4l-1.6-1.6
		c0.1-0.1,0.2-0.3,0.3-0.4l1.6,1.6C28.1,129.1,28,129.2,27.9,129.4 M27.1,130.8l-0.1,0.1l-1.7-1.6l0.2-0.4l1.7,1.7
		C27.2,130.6,27.1,130.7,27.1,130.8 M26.1,132.5l-1.7-1.7l0.2-0.4l1.7,1.7C26.2,132.2,26.1,132.3,26.1,132.5 M25.1,134l-1.7-1.7
		c0.1-0.1,0.1-0.2,0.2-0.4l1.7,1.7C25.2,133.7,25.1,133.9,25.1,134 M24.1,135.5l-1.7-1.7l0.2-0.4l1.7,1.7
		C24.2,135.2,24.2,135.4,24.1,135.5 M23.1,137l-1.6-1.6l0.2-0.4l1.6,1.6L23.1,137 M22.1,138.4l-1.6-1.6l0.2-0.4l1.6,1.6
		C22.3,138.1,22.2,138.2,22.1,138.4 M21,139.7l-1.4-1.4l0.3-0.4l1.5,1.5C21.2,139.5,21.1,139.6,21,139.7 M19.8,141l-1.3-1.3l0.3-0.4
		l1.3,1.3L19.8,141 M18.5,142.2l-1-1c0.1-0.1,0.2-0.2,0.3-0.4l1.1,1.1C18.8,142,18.6,142.1,18.5,142.2 M17.1,143.2l-0.7-0.7l0.3-0.3
		l0.8,0.8C17.3,143,17.2,143.1,17.1,143.2 M15.4,144l-0.3-0.3l0.3-0.3l0.4,0.4L15.4,144 M47.9,111.5c0.4,0.1,4.4,1.6,6.7,2.5
		c-0.9,0-2,0-3,0.1c-0.5,0-1,0-1.5,0l-1.5-0.2c-1-0.1-0.8-0.7-1.7-0.9c-0.6-0.1-1.2,0.2-1.5,0.7C45.4,112.1,46.8,111.1,47.9,111.5
		 M83.7,111.9l0.5,0.1l-0.6,0.6c-0.1-0.1-0.2-0.2-0.3-0.3L83.7,111.9z M85.5,112.5l0.4,0.2l-1.1,1.1l-0.3-0.3L85.5,112.5z
		 M87.7,113.5l-1.6,1.5c-0.1-0.1-0.2-0.2-0.3-0.3l1.4-1.4L87.7,113.5 M89,114.6l-1.9,1.9l-0.2-0.4l1.8-1.8
		C88.8,114.4,88.9,114.5,89,114.6 M89.8,115.6c0.1,0.2,0.1,0.3,0.2,0.4l-1,0.9h-0.6L89.8,115.6z M85.5,119.9c0.2,0,0.4,0.1,0.5,0.1
		l-0.4,0.4l-0.4-0.2L85.5,119.9z M87.6,120.3l0.5,0.1l-0.7,0.7l-0.4-0.2L87.6,120.3z M89.5,120.8L90,121l-1,1l-0.4-0.2L89.5,120.8z
		 M91.2,121.6l0.4,0.2l-1.3,1.3l-0.3-0.3L91.2,121.6z M93,122.8l-1.5,1.5c-0.1-0.1-0.2-0.2-0.3-0.3l1.4-1.5L93,122.8 M93.9,123.8
		l0.3,0.4l-1.7,1.8l-0.2-0.4L93.9,123.8z M94.9,125.9l-1,1l-0.4-0.2l1.3-1.3C94.8,125.6,94.9,125.7,94.9,125.9 M91.7,130.3
		c-2.2-1.3-10.5-5.8-10.5-5.8l8.4,1.8c3.7,0.8,6,2,5.9,3c0.2-0.5,0.3-1.1,0.3-1.6c0-9.1-14.4-8.7-14.4-8.7l3.3-0.8
		c3.9-0.8,6-0.6,6.3,0.2c0-0.5-0.1-1.1-0.2-1.6c-1.1-3.5-3.3-4.7-10.3-6.4l-9.8-2.3c3.1,3.2,4.4,12,0.8,16.1c0-0.8-0.4-1.6-1-2.2
		c-0.6,2.3-1.9,5.2-5.1,4.8c0-0.1,0.3-0.6-0.6-1.4c-1.8-1.6-7.5-6.8-9.6-8.7c-0.1,0.7-0.2,0.9-0.4,2c-0.3,1.8-1.8,3.2-3.7,3.3
		c-1.3-0.2-2.5-0.9-3.2-2c0.9,0.6,1.9,0.9,2.9,0.9c0.1-0.5,0.4-0.9,0.8-1.2c0.5-0.4,1.4-0.7,1.5-1.7c0.2-0.7-0.2-1.4-0.9-1.6
		c-0.2,0-0.3-0.1-0.5,0c-1.6,0.3-3.4,0.6-3.8,0.7c-0.3,0-0.7,0-1-0.2c-0.2-0.2-0.5-0.2-0.8-0.2c-0.6,0.1-1.1,0.4-1.3,1
		c-0.3-1.1,0.3-2.3,1.4-2.6c0.1,0,0.3-0.1,0.4-0.1c0.2,0,5.8-0.3,7.4-0.3c0.9,0,1.7,0.1,2.5,0.4c1.4,0.9,4.3,3,4.9,3.5
		c1.2-2.6,0.8-7.6-0.5-8.6c-9.1-1.8-19.2-0.2-25.4-3.6c-0.8,0.4-3.4,1.7-4.1,2c-0.4,0.2-0.9,0.4-1.4,0.6c-0.2,0.1-0.4,0.2-0.6,0.2
		c0.1,0.1,2,1.2,4.4-1.2c2.3,1.2,4.6,2.2,7.1,2.9c-0.7,2.3-6.7,6.8-10.4,10.3c-6.1,5.7-12.6,21.7-18.6,23.8c0.9,0.2,1.7,0.3,2.6,0.3
		c7.8,0.1,11.8-7.3,13.1-9.2c-2.2,5.4-4.3,8.5-5.6,8.4c4.5,1.3,9.4,0.3,13-2.6l-4.6-2.4c0,0,5.9,2.4,10.8,2.5
		c5.1,0.1,5.9-2.1,5.9-2.1l-5.7-3.2c2.2,1.1,4.6,1.7,7,1.9c7.3,0.1,11-6.9,11.5-10.6c-0.4,0.8-2.5,4.1-5.6,3.7
		c0.4-0.5,0.3-1.2-0.1-1.6c0,0-0.1-0.1-0.2-0.1c-0.5-0.3-4-3.9-6.7-6.1c-0.2,0.7-0.3,1-0.5,2c-0.3,1.5-1.7,2.6-3.2,2.6
		c-1.3-0.2-2.4-1-3-2.1c0.5,0.6,1.2,1,2,1.2c0.3-0.5,0.8-0.8,1.3-1c0.4-0.1,0.7-0.3,1-0.5c0.7-0.7,1.1-1.6,1.2-2.5
		c0-0.6-0.3-1.1-0.8-1.4c-0.7-0.4-1.6-0.5-2.4-0.4c-1.4,0-2-0.1-2.4-0.5s-0.4-0.5-0.9-0.5c-0.4,0-0.8,0.2-1,0.5
		c-0.1-1,0.7-1.8,1.6-1.8c0,0,0.1,0,0.1,0c0.1,0,0.3,0,0.4,0.1c0.5,0.1,5.5,1.4,6.5,1.9c0.6,0.3,6.2,4.7,6.2,4.7
		c1.2-0.7,1.9-3.7,1.9-5.2c0.4-0.2,1.2,0,2.3,0.8s4.5,3.9,4.9,4.4c-0.7,5.3,2.6,15.7,7.7,15.8c0.5,0,1-0.1,1.4-0.3
		c-0.5-0.2-0.7-0.7-0.9-1.6l-0.9-3.7c0,0,1.1,1.5,5.2,6c2.2,2.5,4.2,3.1,5.6,3.1c0.9,0.1,1.8-0.2,2.4-0.7c-0.6,0-1.4-0.6-2.4-1.9
		l-4-5.1c6.2,5.7,10.7,7,13.4,7c1.2,0.1,2.3-0.2,3.3-0.8l-13.2-11.8l15.6,8.7C97.9,135.1,93.9,131.6,91.7,130.3">
  </path>
  <path class="st0" d="M27.5,107.4l0.4-1.6c0,0,1.6-0.4,2.7-0.6s2,1.5,2,1.5s2.8-0.3,3.6-1.9c-0.1-0.4-4.6-0.2-5.4-0.1
		s-1.5-0.6-2.9-1.8c-1.1,0.5-1.9,1.6-2,2.8C25.9,107,27.4,107.4,27.5,107.4">
  </path>
  <path class="st0" d="M14,134.5l0.7,0.7c-0.1,0.1-0.2,0.2-0.3,0.3l-0.8-0.8L14,134.5 M13,136.6l-1-1l0.4-0.2l0.9,1L13,136.6
		 M11.7,137.8l-1.3-1.3l0.4-0.2l1.2,1.2L11.7,137.8 M10.4,139l-1.5-1.6c0.1-0.1,0.3-0.1,0.4-0.2l1.5,1.5
		C10.6,138.8,10.5,138.9,10.4,139 M8.9,140l-1.7-1.7l0.4-0.2l1.7,1.7C9.1,139.9,9,139.9,8.9,140 M7.2,140.7L5.5,139l0.4-0.2l1.7,1.7
		c-0.1,0.1-0.3,0.1-0.4,0.2 M5.2,141.1l-1.4-1.4l0.4-0.2l1.5,1.5L5.2,141.1 M2.6,141L2,140.4l0.5-0.2l0.9,0.9
		C3.1,141.1,2.9,141.1,2.6,141 M15.5,133.5l0.4,0.4l-0.3,0.3l-0.5-0.5L15.5,133.5 M17,132.6l0.2,0.2c-0.1,0.1-0.2,0.2-0.3,0.3
		l-0.3-0.3L17,132.6 M16.5,138.2c2.8-4.4,7.7-11.9,8.2-12.5c-2.9,3.2-16.2,12-22.9,14c-0.6,0-1.2-0.1-1.8-0.2c0,0,0.6,4.9,6.9,5
		C10.7,144.5,14,142.1,16.5,138.2">
  </path>
  <path class="st0" d="M126.5,26.2l-0.3-0.3c0.1-0.1,0.1-0.2,0.1-0.3v0C126.4,25.8,126.5,26,126.5,26.2 M126.4,28.6l-1.1-1.1l0.2-0.4
		l0.9,0.9C126.4,28.2,126.4,28.4,126.4,28.6 M125.9,30.6l-1.7-1.7c0.1-0.1,0.2-0.2,0.3-0.4l1.6,1.6C126.1,30.3,126,30.4,125.9,30.6
		 M125.3,32.4l-2.2-2.2l0.3-0.3l2.1,2.1C125.4,32.2,125.4,32.3,125.3,32.4 M124.5,34.1l-2.7-2.7c0.1-0.1,0.2-0.2,0.3-0.3l2.5,2.5
		C124.7,33.9,124.6,34,124.5,34.1 M123.6,35.7l-3-3l0.3-0.3l3,3C123.8,35.5,123.8,35.6,123.6,35.7 M122.7,37.2l-3.3-3.3
		c0.1-0.1,0.2-0.2,0.3-0.3l3.3,3.3C122.9,37,122.8,37.1,122.7,37.2 M121.6,38.6l-3.6-3.7l0.3-0.3l3.6,3.6L121.6,38.6 M120.4,39.9
		l-3.9-3.9c0.1-0.1,0.2-0.2,0.3-0.3l3.8,3.8L120.4,39.9 M119.2,41.1L115,37l0.4-0.3l4.1,4.1c-0.1,0.1-0.2,0.2-0.3,0.3 M117.9,42.3
		l-4.3-4.3c0.1-0.1,0.3-0.2,0.4-0.3l4.3,4.3C118.1,42.1,118,42.2,117.9,42.3 M116.6,43.5l-4.5-4.5c0.1-0.1,0.3-0.2,0.4-0.2l4.5,4.5
		C116.8,43.3,116.7,43.4,116.6,43.5 M115.2,44.6l-4.7-4.7l0.4-0.2l4.6,4.6C115.4,44.4,115.3,44.5,115.2,44.6 M113.8,45.7l-4.8-4.8
		l0.4-0.2l4.8,4.8L113.8,45.7 M112.4,46.6l-4.9-4.9c0.1-0.1,0.3-0.2,0.4-0.2l4.9,4.9L112.4,46.6 M110.9,47.6l-5-5l0.4-0.2l5,5
		C111.2,47.4,111.1,47.5,110.9,47.6 M109.4,48.6l-5-5l0.4-0.2l5,5L109.4,48.6 M107.9,49.6l-5-5l0.4-0.2l5,5L107.9,49.6 M106.4,50.5
		l-5.1-5l0.4-0.2l5.1,5C106.7,50.3,106.6,50.4,106.4,50.5 M104.9,51.4l-5-5c0.1-0.1,0.2-0.2,0.4-0.2l5,5L104.9,51.4 M103.3,52.3
		l-5-5l0.4-0.2l5,5C103.5,52.1,103.4,52.2,103.3,52.3 M101.7,53.1l-5-5l0.4-0.2l5,5L101.7,53.1 M100,53.9L95.1,49l0.4-0.2l4.9,4.9
		L100,53.9 M98.4,54.8l-4.8-4.8l0.4-0.2l4.9,4.9L98.4,54.8 M96.8,55.6L92,51l0.4-0.2l4.8,4.8l-0.4,0.2 M95.1,56.6l-4.7-4.7l0.4-0.2
		l4.7,4.7L95.1,56.6 M93.4,57.3l-4.6-4.5l0.4-0.2l4.6,4.6L93.4,57.3 M91.7,58.1l-4.4-4.4l0.4-0.2l4.5,4.5L91.7,58.1 M90,58.8
		l-4.3-4.3c0.1-0.1,0.3-0.2,0.4-0.2l4.3,4.3C90.3,58.7,90.1,58.8,90,58.8 M88.3,59.6l-4.2-4.2l0.4-0.2l4.2,4.2L88.3,59.6 M86.6,60.4
		l-4-4l0.4-0.3l4,4.1L86.6,60.4 M84.9,61.2l-3.9-4l0.4-0.2l4,4L84.9,61.2 M83.2,62l-3.9-3.9l0.4-0.2l3.9,3.9L83.2,62 M81.6,62.8
		L77.8,59l0.4-0.2l3.8,3.8C81.9,62.7,81.7,62.7,81.6,62.8 M80,63.7l-3.8-3.8l0.4-0.2l3.8,3.8L80,63.7 M78.4,64.5l-3.7-3.7
		c0.1-0.1,0.2-0.2,0.4-0.2l3.8,3.8L78.4,64.5 M76.8,65.5l-3.7-3.7l0.4-0.2l3.7,3.7L76.8,65.5 M75.3,66.4l-3.6-3.6
		c0.1-0.1,0.2-0.2,0.4-0.3l3.6,3.6L75.3,66.4 M73.8,67.4l-3.5-3.5l0.4-0.3l3.5,3.5L73.8,67.4 M72.3,68.4L68.9,65l0.3-0.3l3.4,3.4
		C72.5,68.2,72.4,68.3,72.3,68.4 M70.8,69.4l-3.2-3.2l0.3-0.3l3.3,3.3L70.8,69.4 M69.4,70.4l-3-3c0.1-0.1,0.2-0.2,0.3-0.3l3.1,3.1
		L69.4,70.4 M68,71.4l-2.8-2.8l0.3-0.3l2.9,2.9L68,71.4 M66.6,72.4L64,69.9c0.1-0.1,0.2-0.2,0.3-0.3l2.7,2.7L66.6,72.4 M65.2,73.6
		l-2.3-2.3c0.1-0.1,0.2-0.2,0.3-0.4l2.4,2.4C65.4,73.4,65.3,73.5,65.2,73.6 M63.9,74.7l-2-2c0.1-0.1,0.2-0.3,0.2-0.4l2.1,2.1
		C64.1,74.5,64,74.6,63.9,74.7 M62.6,75.9l-1.7-1.6c0.1-0.1,0.2-0.3,0.2-0.4l1.7,1.7C62.8,75.7,62.7,75.8,62.6,75.9 M61.3,77
		l-1.2-1.2c0.1-0.2,0.1-0.3,0.2-0.4l1.3,1.3L61.3,77 M60.1,78.3l-0.7-0.7c0-0.2,0.1-0.3,0.2-0.4l0.9,0.9L60.1,78.3 M58.9,79.6
		l-0.2-0.2c0-0.2,0.1-0.3,0.2-0.5l0.4,0.4L58.9,79.6 M112.3,38C102.2,44.5,87.7,52.8,78,58c-15.8,8.7-19.4,18-20.8,24.2
		c3.6-4.3,25.4-14.1,41.6-20.7c18.6-7.5,28.8-16,29-29.5c0-3-0.5-6.1-1.4-8.9C126,27.3,120.4,32.8,112.3,38">
  </path>
  <path class="st0" d="M71.3,76.8l0.1-0.1l3.8,3.8l-0.5,0.1L71,76.9L71.3,76.8L71.3,76.8z M73.1,75.9l4.1,4.1l-0.5,0.2l-4-4
		C72.8,76.1,73,76,73.1,75.9 M74.8,75.2l4.2,4.2l-0.5,0.2l-4.2-4.2L74.8,75.2 M76.5,74.3l4.3,4.3l-0.5,0.2L76,74.5L76.5,74.3
		 M78.2,73.6l4.4,4.4l-0.5,0.2l-4.4-4.4L78.2,73.6 M80,72.9l4.5,4.5L84,77.6l-4.5-4.5L80,72.9 M81.7,72.2l4.5,4.5l-0.4,0.2l-4.5-4.5
		C81.5,72.3,81.6,72.2,81.7,72.2 M83.5,71.5L88,76l-0.4,0.2L83,71.7L83.5,71.5 M85.3,70.8l4.4,4.4c-0.2,0.1-0.3,0.1-0.4,0.2L84.8,71
		L85.3,70.8 M87.1,70.2l4.4,4.3L91,74.7l-4.4-4.4L87.1,70.2 M88.8,69.5l4.2,4.2c-0.1,0.1-0.3,0.1-0.4,0.2l-4.3-4.3
		C88.5,69.5,88.7,69.5,88.8,69.5 M90.6,68.8l4,4L94.2,73l-4.1-4.1C90.3,68.8,90.4,68.7,90.6,68.8 M92.4,68l3.8,3.8l-0.4,0.2L92,68.2
		L92.4,68 M94.2,67.4l3.5,3.5c-0.1,0.1-0.2,0.2-0.4,0.2l-3.6-3.6L94.2,67.4 M96,66.7l3.2,3.2l-0.3,0.3l-3.3-3.2L96,66.7 M97.8,66
		l2.7,2.7c-0.1,0.1-0.2,0.2-0.3,0.3l-2.8-2.8C97.5,66.1,97.7,66,97.8,66 M99.6,65.3l2.2,2.2c-0.1,0.1-0.2,0.2-0.3,0.3l-2.4-2.3
		L99.6,65.3 M101.4,64.6l1.7,1.7l-0.3,0.3l-1.8-1.8L101.4,64.6 M103.1,63.9l1.1,1.1l-0.3,0.3l-1.2-1.2L103.1,63.9 M104.9,63.2
		l0.5,0.5c-0.1,0.1-0.2,0.2-0.3,0.3l-0.6-0.6L104.9,63.2 M106.2,62.7L106.2,62.7L106.2,62.7 M72.9,81.3l-3.5-3.5
		c0.1-0.1,0.3-0.1,0.4-0.2l3.6,3.5C73.2,81.1,73.1,81.2,72.9,81.3 M71,81.8l-3.2-3.2l0.4-0.2l3.3,3.3L71,81.8 M69,82.3l-2.8-2.8
		l0.4-0.2l2.9,2.9L69,82.3 M67,82.8l-2.5-2.5l0.4-0.2l2.6,2.6L67,82.8 M65,83.3l-2-2.1l0.4-0.2l2.2,2.2L65,83.3 M63,83.7l-1.5-1.6
		l0.4-0.2l1.7,1.7C63.4,83.6,63.2,83.6,63,83.7 M61,84.1l-1-1l0.4-0.3l1.1,1.1L61,84.1 M59,84.5l-0.2-0.2L59,84l0.5,0.4
		C59.3,84.4,59.1,84.5,59,84.5 M58.7,86.8l-1-1c0-0.1,0.1-0.2,0.1-0.2c0-0.1,0.1-0.1,0.1-0.2l0.8,0.8C58.8,86.4,58.8,86.6,58.7,86.8
		 M58.5,89.1L57,87.6c0.1-0.2,0.1-0.3,0.2-0.4l1.4,1.4C58.5,88.7,58.5,88.9,58.5,89.1 M58,91.1l-1.7-1.7c0.1-0.1,0.1-0.3,0.2-0.4
		l1.7,1.7C58.1,90.7,58.1,90.9,58,91.1 M57.4,92.9l-1.8-1.8c0-0.1,0.1-0.3,0.2-0.4l1.8,1.8C57.5,92.6,57.5,92.8,57.4,92.9
		 M56.6,94.6l-1.9-1.9c0.1-0.1,0.1-0.3,0.2-0.4l1.9,1.9C56.8,94.3,56.7,94.5,56.6,94.6 M55.6,96.1l-1.8-1.8c0.1-0.1,0.2-0.2,0.2-0.4
		l1.9,1.8C55.9,95.9,55.8,96,55.6,96.1 M54.1,97l-1.4-1.4c0.1-0.1,0.2-0.2,0.3-0.3l1.5,1.5C54.4,96.9,54.3,96.9,54.1,97 M51.7,97.1
		l-0.5-0.5c0.1-0.1,0.3-0.1,0.4-0.2l0.8,0.8C52.2,97.2,51.9,97.2,51.7,97.1 M57.2,85.3c0,0-2.5,6.3-3.5,8.1
		c-0.8,1.7-2.5,2.8-4.4,2.9c-1.6-0.2-3.5-0.4-5.5-0.5c-3.8-0.2-8.3,0.3-10.2,1.4c-1.6,0.9-4,4-4,4c1,0.6,2.2,0.6,3.3,0.1
		c0,0-0.8-0.8-0.8-1.1s0.3-0.4,0.7-0.7c0.2,1.1,1.2,1.8,2.3,1.7c1.2-0.1,2.1-0.9,2.4-2.1c0.2-0.6,0-1.3-0.3-1.8
		c1.3,0,2.4,0.8,2.4,1.1c-0.7,1.7-2.2,3.1-4,3.6c0.3,1.2,2.9,1.5,2.8,2.2c-0.1,0.4-0.3,0.7-0.6,0.9c-0.4,0.3,1.8,1,3.3,1.1
		c5.1,0.2,6.5-1.7,8.2-4.1c0.4-0.5,1.1-0.9,1.8-0.9c1.4,0,10.4,5.5,19.9,5.7c9,0.1,15.6-4.2,17-9.3c-2.6,0.9-5.3,1.5-8,1.5
		c-9.1-0.1-12.7-4.5-12.7-4.5c3.5,1.2,7.1,1.9,10.8,2C92.5,96.7,95.2,84.9,96.2,81c-2,1.3-8.9,5.8-22.3,5.6c-3.1,0.1-6.2-0.5-9-1.8
		c4.8,0.1,9.6-0.3,14.3-1.2c15.9-3.3,26.2-10.6,28.5-22.2c-11.4,4.9-27.6,10.1-36.7,14.8C62.3,80.7,58.4,82.7,57.2,85.3">
  </path>
  <path class="st0" d="M68,60.9l0.2,0.2c-0.1,0.1-0.2,0.2-0.3,0.3l-0.1-0.1C67.9,61.1,67.9,61,68,60.9 M68.9,59.3l0.5,0.5l-0.3,0.3
		l-0.4-0.4L68.9,59.3 M69.8,57.7l0.8,0.8c-0.1,0.1-0.2,0.2-0.3,0.3l-0.7-0.7L69.8,57.7 M70.7,56.1l1.1,1.1c-0.1,0.1-0.2,0.2-0.3,0.3
		l-1-1C70.6,56.4,70.7,56.3,70.7,56.1 M71.7,54.7l1.3,1.4l-0.3,0.3L71.3,55c0.1-0.1,0.2-0.2,0.2-0.4 M72.6,53.1l1.7,1.7
		c-0.1,0.1-0.2,0.2-0.3,0.3l-1.7-1.7C72.4,53.4,72.5,53.2,72.6,53.1 M73.6,51.7l2,2L75.2,54l-1.9-2L73.6,51.7 M74.6,50.2l2.3,2.3
		l-0.3,0.3l-2.2-2.2L74.6,50.2 M75.6,48.8l2.5,2.5l-0.3,0.3l-2.5-2.5L75.6,48.8 M76.7,47.4l2.8,2.8l-0.3,0.3l-2.7-2.7L76.7,47.4
		 M77.8,46l3,3l-0.3,0.3l-2.9-3C77.6,46.2,77.7,46.1,77.8,46 M79,44.7l3.2,3.2l-0.3,0.3l-3.2-3.1C78.8,45,78.9,44.8,79,44.7
		 M80.2,43.4l3.4,3.4l-0.3,0.3l-3.3-3.3C80,43.7,80.1,43.6,80.2,43.4 M81.4,42.2l3.6,3.6c-0.1,0.1-0.2,0.2-0.3,0.3l-3.5-3.5
		C81.2,42.4,81.3,42.3,81.4,42.2 M82.6,40.9l3.7,3.7c-0.1,0.1-0.2,0.2-0.3,0.3l-3.7-3.7L82.6,40.9 M83.9,39.7l3.8,3.8l-0.4,0.3
		l-3.8-3.8C83.6,40,83.7,39.8,83.9,39.7 M85.2,38.6l3.9,3.9l-0.4,0.3l-3.9-3.9C85,38.8,85.1,38.7,85.2,38.6 M86.5,37.5l4,4l-0.4,0.3
		l-4-4C86.3,37.6,86.4,37.5,86.5,37.5 M87.8,36.3l4.1,4.1c-0.1,0.1-0.2,0.2-0.4,0.3l-4-4L87.8,36.3 M89.2,35.2l4.1,4.2L93,39.6
		l-4.1-4.1L89.2,35.2 M90.5,34.1l4.2,4.2l-0.4,0.3l-4.2-4.2C90.3,34.2,90.4,34.2,90.5,34.1 M91.9,32.9l4.3,4.3l-0.4,0.2l-4.3-4.3
		L91.9,32.9 M93.2,31.8l4.4,4.4l-0.4,0.3l-4.4-4.4C93,32,93.1,31.9,93.2,31.8 M94.6,30.7l4.6,4.5c-0.1,0.1-0.3,0.2-0.4,0.2L94.2,31
		L94.6,30.7 M95.9,29.6l4.7,4.6c-0.1,0-0.1,0.1-0.2,0.1l-0.2,0.1l-4.6-4.6L95.9,29.6 M97.3,28.5l4.8,4.8c-0.1,0.1-0.2,0.2-0.4,0.2
		l-4.8-4.7L97.3,28.5 M98.6,27.4l4.9,4.9c-0.1,0.1-0.2,0.2-0.4,0.3l-4.8-4.9L98.6,27.4 M100,26.2l5,5l-0.4,0.2l-4.9-4.9
		C99.8,26.5,99.9,26.4,100,26.2 M101.4,25.2l5,5l-0.4,0.3l-5-5L101.4,25.2 M102.7,24l5.1,5.1c-0.1,0.1-0.2,0.2-0.4,0.3l-5.1-5.1
		L102.7,24 M104,22.9l5.1,5.2l-0.3,0.2l-5.1-5.1L104,22.9 M105.4,21.8l5.2,5.2c-0.1,0.1-0.2,0.2-0.3,0.3l-5.2-5.2L105.4,21.8
		 M106.7,20.7l5.2,5.2c-0.1,0.1-0.2,0.2-0.3,0.3l-5.2-5.2C106.5,20.9,106.6,20.8,106.7,20.7 M108.1,19.6l5.2,5.2L113,25l-5.2-5.2
		L108.1,19.6 M109.5,18.4l5.1,5.1c-0.1,0.1-0.2,0.2-0.3,0.3l-5.2-5.1L109.5,18.4 M110.8,17.3l5.1,5.1l-0.3,0.3l-5.1-5.1L110.8,17.3
		 M112.2,16.2l5,5c-0.1,0.1-0.2,0.2-0.3,0.3l-5-5L112.2,16.2 M113.5,15l4.9,5l-0.3,0.3l-4.9-4.9C113.3,15.3,113.4,15.2,113.5,15
		 M114.8,13.9l4.8,4.8c-0.1,0.1-0.2,0.2-0.3,0.3l-4.8-4.8L114.8,13.9 M116.1,12.8l4.6,4.6c-0.1,0.1-0.2,0.2-0.3,0.3l-4.7-4.7
		C115.9,13,116,12.9,116.1,12.8 M117.4,11.6l4.4,4.4c-0.1,0.1-0.2,0.2-0.3,0.3l-4.5-4.5C117.2,11.8,117.3,11.7,117.4,11.6
		 M118.7,10.4l4.2,4.2c-0.1,0.1-0.2,0.2-0.2,0.4l-4.3-4.3C118.5,10.6,118.6,10.5,118.7,10.4 M120,9.2l3.9,3.9
		c-0.1,0.1-0.1,0.3-0.2,0.4l-4-4C119.8,9.4,119.9,9.3,120,9.2 M121.2,7.9l3.6,3.6c-0.1,0.1-0.1,0.3-0.2,0.4l-3.7-3.7
		C121,8.2,121.1,8,121.2,7.9 M122.4,6.7l3.1,3.1l-0.2,0.4L122.1,7L122.4,6.7 M123.5,5.4l2.5,2.5c0,0.2-0.1,0.3-0.1,0.5l-2.7-2.7
		L123.5,5.4 M124.7,4.1l1.6,1.6c0,0.2,0,0.4,0,0.6l-1.9-1.8C124.5,4.3,124.6,4.2,124.7,4.1 M125.7,2.6l0.3,0.3
		c0,0.2,0.1,0.5,0.1,0.7L125.5,3C125.6,2.9,125.7,2.7,125.7,2.6 M72.2,59.1C78,55,91.1,47.5,105.5,39.2c11-6.5,22.5-17.1,22.8-29
		c0-3.6-0.9-7.1-2.7-10.2c-0.1,0.9-0.3,1.8-0.5,2.6c-2.6,3.2-5.5,6.2-8.5,9c-4.8,4.4-29.8,24.5-33.5,28
		c-7.4,7.2-13.4,15.7-17.7,25.1C65.3,64.8,66.5,63.2,72.2,59.1">
  </path>
  <path class="st1" d="M14.6,135.2l-0.7-0.7l-0.4,0.2l0.8,0.8C14.4,135.3,14.5,135.2,14.6,135.2z">
  </path>
  <path class="st1" d="M13.3,136.3l-0.9-1l-0.4,0.2l1,1L13.3,136.3z">
  </path>
  <path class="st1" d="M17.2,132.8l-0.2-0.2l-0.4,0.2l0.3,0.3C17,133,17.1,132.9,17.2,132.8z">
  </path>
  <path class="st1" d="M15.9,134l-0.4-0.4l-0.4,0.2l0.5,0.5L15.9,134z">
  </path>
  <path class="st1" d="M3.3,141.1l-0.9-0.9L2,140.4l0.6,0.6C2.9,141.1,3.1,141.1,3.3,141.1z">
  </path>
  <path class="st1" d="M5.7,141.1l-1.5-1.5l-0.4,0.2l1.4,1.4L5.7,141.1z">
  </path>
  <path class="st1" d="M10.7,138.6l-1.5-1.5c-0.1,0.1-0.3,0.1-0.4,0.2l1.5,1.6C10.5,138.9,10.6,138.7,10.7,138.6z">
  </path>
  <path class="st1" d="M12,137.5l-1.2-1.2l-0.4,0.2l1.3,1.3L12,137.5z">
  </path>
  <path class="st1" d="M9.3,139.7L7.6,138l-0.4,0.2l1.7,1.7C9,139.8,9.2,139.8,9.3,139.7z">
  </path>
  <path class="st1" d="M7.6,140.5L6,138.8L5.6,139l1.6,1.6C7.3,140.6,7.5,140.6,7.6,140.5z">
  </path>
  <path class="st1" d="M126.3,5.6L124.7,4c-0.1,0.1-0.2,0.2-0.3,0.3l1.9,1.8C126.3,6,126.3,5.8,126.3,5.6z">
  </path>
  <path class="st1" d="M126,7.9l-2.5-2.5l-0.3,0.3l2.7,2.7C126,8.2,126,8,126,7.9z">
  </path>
  <path class="st1" d="M119.6,18.7l-4.8-4.8l-0.3,0.3l4.8,4.8C119.4,18.9,119.5,18.8,119.6,18.7z">
  </path>
  <path class="st1" d="M125.5,9.8l-3.1-3.1L122.1,7l3.3,3.2L125.5,9.8z">
  </path>
  <path class="st1" d="M126,2.9l-0.3-0.3c0,0.2-0.1,0.3-0.2,0.4l0.6,0.6C126.1,3.4,126.1,3.2,126,2.9z">
  </path>
  <path class="st1" d="M120.8,17.4l-4.6-4.6c-0.1,0.1-0.2,0.2-0.3,0.3l4.7,4.7C120.6,17.6,120.7,17.5,120.8,17.4z">
  </path>
  <path class="st1" d="M121.9,16l-4.4-4.4c-0.1,0.1-0.2,0.2-0.3,0.3l4.5,4.5C121.7,16.3,121.8,16.2,121.9,16z">
  </path>
  <path class="st1" d="M122.9,14.6l-4.2-4.2c-0.1,0.1-0.2,0.2-0.3,0.3l4.3,4.3C122.8,14.9,122.8,14.8,122.9,14.6z">
  </path>
  <path class="st1" d="M124.8,11.5l-3.6-3.6c-0.1,0.1-0.2,0.2-0.3,0.3l3.7,3.7C124.6,11.8,124.7,11.6,124.8,11.5z">
  </path>
  <path class="st1" d="M123.9,13.1L120,9.2c-0.1,0.1-0.2,0.2-0.3,0.3l4,4C123.7,13.4,123.8,13.2,123.9,13.1z">
  </path>
  <path class="st1" d="M65,135.5c0.1,0.2,0.1,0.3,0.2,0.4l0.4-0.4c-0.1-0.1-0.2-0.3-0.2-0.4L65,135.5z">
  </path>
  <path class="st1" d="M65.8,137.1c0.1,0.1,0.1,0.3,0.2,0.4l0.7-0.7c-0.1-0.1-0.2-0.2-0.3-0.3L65.8,137.1z">
  </path>
  <path class="st1" d="M64.3,133.7l0.1,0.4c0,0,0,0.1,0,0.1l0.2-0.2l-0.2-0.4L64.3,133.7z">
  </path>
  <path class="st1" d="M25.3,129.2l1.6,1.6l0.1-0.1c0.1-0.1,0.1-0.2,0.2-0.3l-1.7-1.7L25.3,129.2z">
  </path>
  <path class="st1" d="M24.4,130.7l1.7,1.7c0.1-0.1,0.1-0.3,0.2-0.4l-1.7-1.7L24.4,130.7z">
  </path>
  <path class="st1" d="M67.6,137.8l-0.9,0.9c0.1,0.1,0.2,0.2,0.3,0.3l0.9-0.9C67.9,138,67.7,137.9,67.6,137.8z">
  </path>
  <path class="st1" d="M84.7,141.1c-0.2,0-0.3-0.1-0.5-0.1l-0.6,0.6l0.4,0.2L84.7,141.1z">
  </path>
  <path class="st1" d="M89.1,141.7h-0.6l-1.4,1.5l0.5,0.2L89.1,141.7z">
  </path>
  <path class="st1" d="M89.5,143.7l1.5-1.5l-0.3-0.3l-1.8,1.7L89.5,143.7z">
  </path>
  <path class="st1" d="M86.7,141.6l-0.6-0.1l-1,1l0.4,0.2L86.7,141.6z">
  </path>
  <path class="st1" d="M68,139.9l0.3,0.3l1.2-1.2c-0.1-0.1-0.3-0.1-0.4-0.2L68,139.9z">
  </path>
  <path class="st1" d="M86.6,128.7l0.3,0.3l0.3-0.3l-0.4-0.2L86.6,128.7z">
  </path>
  <path class="st1" d="M92.3,143.4l-0.3-0.3l-0.6,0.6c0.3,0,0.5-0.1,0.8-0.1L92.3,143.4z">
  </path>
  <path class="st1" d="M23.4,132.2l1.7,1.7c0.1-0.1,0.2-0.3,0.2-0.4l-1.7-1.7C23.6,132,23.5,132.1,23.4,132.2z">
  </path>
  <path class="st1" d="M82.8,140.6l-0.5-0.2l-0.2,0.2c0.1,0.1,0.3,0.1,0.4,0.2L82.8,140.6z">
  </path>
  <path class="st1" d="M80.3,143l-0.3-0.4l-1.3,1.4l0.4,0.2L80.3,143z">
  </path>
  <path class="st1" d="M75.9,141.8l0.3,0.3l0.6-0.6c-0.1-0.1-0.3-0.1-0.4-0.2L75.9,141.8z">
  </path>
  <path class="st1" d="M88,129.8l0.3,0.3l0.5-0.5c-0.1-0.1-0.3-0.1-0.4-0.2L88,129.8z">
  </path>
  <path class="st1" d="M81.3,144.5l0.2-0.2c-0.1-0.1-0.2-0.2-0.3-0.3l-0.5,0.6h0.2L81.3,144.5z">
  </path>
  <path class="st1" d="M74.7,140.6l0.3,0.3l0.3-0.3l-0.4-0.3L74.7,140.6z">
  </path>
  <path class="st1" d="M78.6,142.3c-0.2-0.1-0.3-0.1-0.5-0.2l-0.9,0.9l0.3,0.3L78.6,142.3z">
  </path>
  <path class="st1" d="M70.1,140.9l0.4-0.4c-0.1-0.1-0.1-0.3-0.2-0.5l-0.7,0.8C69.7,140.9,69.9,140.9,70.1,140.9z">
  </path>
  <path class="st1" d="M22.5,133.8l1.7,1.7c0.1-0.1,0.2-0.2,0.3-0.4l-1.7-1.7L22.5,133.8z">
  </path>
  <path class="st1" d="M18.6,139.7l1.3,1.3l0.3-0.3l-1.3-1.3L18.6,139.7z">
  </path>
  <path class="st1" d="M17.5,141.1l1,1c0.1-0.1,0.2-0.2,0.3-0.3l-1.1-1.1C17.7,140.9,17.6,141,17.5,141.1z">
  </path>
  <path class="st1" d="M16.4,142.5l0.7,0.7c0.1-0.1,0.3-0.2,0.4-0.2l-0.8-0.8L16.4,142.5z">
  </path>
  <path class="st1" d="M19.6,138.3l1.4,1.4c0.1-0.1,0.2-0.2,0.3-0.4l-1.5-1.5L19.6,138.3z">
  </path>
  <path class="st1" d="M21.5,135.3l1.6,1.6l0.3-0.4l-1.6-1.6L21.5,135.3z">
  </path>
  <path class="st1" d="M20.6,136.8l1.6,1.6c0.1-0.1,0.2-0.3,0.3-0.4l-1.6-1.6L20.6,136.8z">
  </path>
  <path class="st1" d="M15.1,143.7l0.3,0.3l0.4-0.2l-0.4-0.4L15.1,143.7z">
  </path>
  <path class="st1" d="M89.4,130.8l0.3,0.3l0.7-0.7l-0.4-0.2L89.4,130.8z">
  </path>
  <path class="st1" d="M95.2,134.9l-1.8,1.8c0,0.2,0.1,0.3,0.1,0.5l1.8-1.8C95.3,135.2,95.2,135.1,95.2,134.9z">
  </path>
  <path class="st1" d="M94.2,133.4l-1.4,1.4l0.2,0.4l1.5-1.5L94.2,133.4z">
  </path>
  <path class="st1" d="M93,132.1l-1.2,1.2c0.1,0.1,0.2,0.2,0.2,0.4l1.2-1.2L93,132.1z">
  </path>
  <path class="st1" d="M94,138.6l0.4,0.2l1.4-1.4c0-0.2,0-0.4-0.1-0.6L94,138.6z">
  </path>
  <path class="st1" d="M91.6,131.1l-0.9,0.9l0.3,0.3l0.9-0.9L91.6,131.1z">
  </path>
  <path class="st1" d="M53.9,94.4l1.8,1.8c0.1-0.1,0.2-0.2,0.3-0.3L54.2,94C54.1,94.1,54,94.2,53.9,94.4z">
  </path>
  <path class="st1" d="M70.5,58.5l-0.8-0.8l-0.2,0.4l0.7,0.7C70.3,58.7,70.4,58.6,70.5,58.5z">
  </path>
  <path class="st1" d="M80.8,49.1l-3-3c-0.1,0.1-0.2,0.2-0.3,0.3l2.9,3L80.8,49.1z">
  </path>
  <path class="st1" d="M68.1,61L68,60.9c-0.1,0.1-0.1,0.3-0.2,0.4l0.1,0.1C67.9,61.2,68,61.1,68.1,61z">
  </path>
  <path class="st1" d="M71.8,57.3l-1.1-1.1c-0.1,0.1-0.2,0.3-0.2,0.4l1,1C71.5,57.5,71.7,57.4,71.8,57.3z">
  </path>
  <path class="st1" d="M79.5,50.2l-2.8-2.8c-0.1,0.1-0.2,0.2-0.3,0.3l2.7,2.7L79.5,50.2z">
  </path>
  <path class="st1" d="M76.9,52.5l-2.3-2.3l-0.3,0.4l2.2,2.2L76.9,52.5z">
  </path>
  <path class="st1" d="M78.2,51.3l-2.5-2.5l-0.3,0.4l2.5,2.5L78.2,51.3z">
  </path>
  <path class="st1" d="M75.6,53.7l-2-2L73.3,52l1.9,2L75.6,53.7z">
  </path>
  <path class="st1" d="M73,56.1l-1.4-1.4c-0.1,0.1-0.2,0.2-0.2,0.4l1.3,1.3L73,56.1z">
  </path>
  <path class="st1" d="M74.3,54.8l-1.7-1.7c-0.1,0.1-0.2,0.2-0.2,0.4l1.7,1.7C74.1,55,74.2,54.9,74.3,54.8z">
  </path>
  <path class="st1" d="M69.3,59.8l-0.5-0.5l-0.2,0.4l0.4,0.4L69.3,59.8z">
  </path>
  <path class="st1" d="M117.2,21.2l-5-5l-0.3,0.3l5,5C117,21.4,117.1,21.3,117.2,21.2z">
  </path>
  <path class="st1" d="M106.4,30.2l-5-5l-0.3,0.3l5,5L106.4,30.2z">
  </path>
  <path class="st1" d="M105,31.2l-5-5c-0.1,0.1-0.2,0.2-0.3,0.3l4.9,4.9L105,31.2z">
  </path>
  <path class="st1" d="M107.8,29.1l-5.1-5.1l-0.3,0.3l5.1,5.1C107.5,29.3,107.7,29.2,107.8,29.1z">
  </path>
  <path class="st1" d="M109.2,28l-5.1-5.2l-0.3,0.3l5.1,5.1C109,28.2,109.1,28.1,109.2,28z">
  </path>
  <path class="st1" d="M82.2,47.9L79,44.7c-0.1,0.1-0.2,0.2-0.3,0.3l3.2,3.1L82.2,47.9z">
  </path>
  <path class="st1" d="M100.4,34.4c0.1,0,0.1-0.1,0.2-0.1l-4.7-4.6l-0.3,0.3l4.6,4.6L100.4,34.4z">
  </path>
  <path class="st1" d="M103.5,32.2l-4.9-4.9l-0.3,0.3l4.8,4.9C103.3,32.4,103.4,32.3,103.5,32.2z">
  </path>
  <path class="st1" d="M114.6,23.6l-5.1-5.1l-0.3,0.3l5.2,5.1C114.4,23.8,114.5,23.7,114.6,23.6z">
  </path>
  <path class="st1" d="M115.9,22.4l-5.1-5.1l-0.3,0.3l5.1,5.1L115.9,22.4z">
  </path>
  <path class="st1" d="M110.6,27l-5.2-5.2l-0.3,0.3l5.2,5.2C110.3,27.1,110.4,27,110.6,27z">
  </path>
  <path class="st1" d="M113.3,24.7l-5.2-5.2l-0.3,0.3L113,25L113.3,24.7z">
  </path>
  <path class="st1" d="M111.9,25.9l-5.2-5.2c-0.1,0.1-0.2,0.2-0.3,0.3l5.2,5.2C111.7,26,111.8,26,111.9,25.9z">
  </path>
  <path class="st1" d="M102,33.2l-4.8-4.8l-0.3,0.3l4.8,4.7C101.8,33.4,101.9,33.3,102,33.2z">
  </path>
  <path class="st1" d="M86.3,44.7l-3.7-3.7l-0.3,0.3l3.7,3.7C86.1,44.8,86.2,44.7,86.3,44.7z">
  </path>
  <path class="st1" d="M87.7,43.6l-3.8-3.8l-0.3,0.3l3.8,3.8L87.7,43.6z">
  </path>
  <path class="st1" d="M118.4,20l-4.9-4.9c-0.1,0.1-0.2,0.2-0.3,0.3l4.9,4.9L118.4,20z">
  </path>
  <path class="st1" d="M89.1,42.5l-3.9-3.9c-0.1,0.1-0.2,0.2-0.3,0.3l3.9,3.9L89.1,42.5z">
  </path>
  <path class="st1" d="M99.1,35.3l-4.6-4.5L94.2,31l4.5,4.5C98.9,35.4,99,35.3,99.1,35.3z">
  </path>
  <path class="st1" d="M84.9,45.7l-3.6-3.6c-0.1,0.1-0.2,0.2-0.3,0.3l3.5,3.5C84.7,45.9,84.8,45.8,84.9,45.7z">
  </path>
  <path class="st1" d="M83.5,46.8l-3.4-3.4c-0.1,0.1-0.2,0.2-0.3,0.3l3.3,3.3L83.5,46.8z">
  </path>
  <path class="st1" d="M91.9,40.4l-4.1-4.1l-0.3,0.3l4,4C91.6,40.5,91.8,40.5,91.9,40.4z">
  </path>
  <path class="st1" d="M97.7,36.3l-4.4-4.4c-0.1,0.1-0.2,0.2-0.3,0.3l4.4,4.4L97.7,36.3z">
  </path>
  <path class="st1" d="M96.2,37.3l-4.3-4.3l-0.3,0.3l4.3,4.3L96.2,37.3z">
  </path>
  <path class="st1" d="M94.8,38.3l-4.2-4.2c-0.1,0.1-0.2,0.2-0.3,0.3l4.2,4.2L94.8,38.3z">
  </path>
  <path class="st1" d="M93.3,39.3l-4.1-4.2l-0.3,0.3l4.2,4.1L93.3,39.3z">
  </path>
  <path class="st1" d="M90.5,41.4l-4-4c-0.1,0.1-0.2,0.2-0.3,0.3l4,4L90.5,41.4z">
  </path>
  <path class="st1" d="M85.7,54.5l4.3,4.3c0.2-0.1,0.3-0.1,0.4-0.2l-4.3-4.3C86,54.4,85.8,54.5,85.7,54.5z">
  </path>
  <path class="st1" d="M88.8,52.8l4.6,4.5l0.4-0.2l-4.6-4.6L88.8,52.8z">
  </path>
  <path class="st1" d="M84.1,55.4l4.2,4.2l0.4-0.2l-4.2-4.2L84.1,55.4z">
  </path>
  <path class="st1" d="M90.4,51.9l4.7,4.7l0.4-0.2l-4.7-4.7L90.4,51.9z">
  </path>
  <path class="st1" d="M87.3,53.7l4.4,4.4l0.4-0.2l-4.5-4.5L87.3,53.7z">
  </path>
  <path class="st1" d="M79.3,58.1l3.9,3.9l0.4-0.2l-3.9-3.9L79.3,58.1z">
  </path>
  <path class="st1" d="M82.5,56.3l4,4l0.4-0.2l-4-4L82.5,56.3z">
  </path>
  <path class="st1" d="M77.8,59l3.8,3.8c0.1-0.1,0.3-0.1,0.4-0.2l-3.8-3.9L77.8,59z">
  </path>
  <path class="st1" d="M81,57.2l3.9,4l0.4-0.2l-4-4L81,57.2z">
  </path>
  <path class="st1" d="M92,51l4.8,4.8l0.4-0.2l-4.8-4.8L92,51z">
  </path>
  <path class="st1" d="M104.4,43.7l5,5l0.4-0.2l-5-5L104.4,43.7z">
  </path>
  <path class="st1" d="M102.9,44.6l5,5l0.4-0.2l-5-5L102.9,44.6z">
  </path>
  <path class="st1" d="M101.3,45.5l5.1,5c0.1-0.1,0.3-0.2,0.4-0.2l-5.1-5L101.3,45.5z">
  </path>
  <path class="st1" d="M106,42.7l5,5c0.1-0.1,0.3-0.1,0.4-0.2l-5-5L106,42.7z">
  </path>
  <path class="st1" d="M93.6,50.1l4.8,4.8l0.4-0.2L94,49.8L93.6,50.1z">
  </path>
  <path class="st1" d="M99.8,46.4l5,5l0.4-0.2l-5-5C100,46.3,99.9,46.3,99.8,46.4z">
  </path>
  <path class="st1" d="M95.1,49.2l4.9,4.9l0.4-0.2l-4.9-4.9L95.1,49.2z">
  </path>
  <path class="st1" d="M76.2,59.8l3.8,3.8l0.4-0.2l-3.8-3.8L76.2,59.8z">
  </path>
  <path class="st1" d="M96.7,48.3l5,5l0.4-0.2l-5-5L96.7,48.3z">
  </path>
  <path class="st1" d="M98.2,47.3l5,5c0.1-0.1,0.3-0.1,0.4-0.2l-5-5L98.2,47.3z">
  </path>
  <path class="st1" d="M109,40.8l4.8,4.8l0.3-0.3l-4.8-4.8L109,40.8z">
  </path>
  <path class="st1" d="M59.3,77.6l0.7,0.7l0.3-0.3l-0.9-0.9C59.4,77.3,59.4,77.4,59.3,77.6z">
  </path>
  <path class="st1" d="M60.1,75.8l1.2,1.2l0.3-0.3l-1.3-1.3C60.2,75.6,60.1,75.7,60.1,75.8z">
  </path>
  <path class="st1" d="M110.5,39.9l4.7,4.7c0.1-0.1,0.2-0.2,0.3-0.3l-4.6-4.6L110.5,39.9z">
  </path>
  <path class="st1" d="M61.9,72.7l2,2c0.1-0.1,0.2-0.2,0.3-0.3l-2.1-2.1C62,72.4,62,72.6,61.9,72.7z">
  </path>
  <path class="st1" d="M60.9,74.2l1.7,1.6c0.1-0.1,0.2-0.2,0.3-0.3l-1.7-1.7C61.1,74,61,74.1,60.9,74.2z">
  </path>
  <path class="st1" d="M112,38.9l4.5,4.5c0.1-0.1,0.2-0.2,0.3-0.3l-4.5-4.5C112.3,38.8,112.2,38.8,112,38.9z">
  </path>
  <path class="st1" d="M74.7,60.8l3.7,3.8l0.4-0.2L75,60.5C74.9,60.6,74.8,60.7,74.7,60.8z">
  </path>
  <path class="st1" d="M126.4,25.6L126.4,25.6c0,0.1-0.1,0.2-0.1,0.3l0.3,0.3C126.5,26,126.5,25.8,126.4,25.6z">
  </path>
  <path class="st1" d="M58.7,79.4l0.2,0.2l0.3-0.3l-0.4-0.4C58.8,79.1,58.7,79.2,58.7,79.4z">
  </path>
  <path class="st1" d="M68.9,64.9l3.4,3.4c0.1-0.1,0.2-0.2,0.4-0.2l-3.4-3.4L68.9,64.9z">
  </path>
  <path class="st1" d="M70.3,63.8l3.5,3.5l0.4-0.2l-3.5-3.5L70.3,63.8z">
  </path>
  <path class="st1" d="M71.7,62.8l3.6,3.6l0.4-0.2l-3.6-3.6C72,62.6,71.8,62.7,71.7,62.8z">
  </path>
  <path class="st1" d="M73.2,61.8l3.7,3.7l0.4-0.2l-3.7-3.7L73.2,61.8z">
  </path>
  <path class="st1" d="M62.9,71.2l2.3,2.3c0.1-0.1,0.2-0.2,0.3-0.3l-2.4-2.4C63.1,71,63,71.1,62.9,71.2z">
  </path>
  <path class="st1" d="M67.6,66.1l3.2,3.2l0.4-0.3L68,65.8L67.6,66.1z">
  </path>
  <path class="st1" d="M64,69.9l2.6,2.6l0.3-0.3l-2.7-2.7C64.2,69.6,64.1,69.7,64,69.9z">
  </path>
  <path class="st1" d="M65.1,68.5l2.9,2.8l0.3-0.3l-2.9-2.9L65.1,68.5z">
  </path>
  <path class="st1" d="M107.5,41.8l4.9,4.9l0.4-0.3l-4.9-4.9C107.8,41.6,107.6,41.7,107.5,41.8z">
  </path>
  <path class="st1" d="M66.3,67.3l3,3l0.4-0.2l-3-3C66.6,67.1,66.4,67.2,66.3,67.3z">
  </path>
  <path class="st1" d="M120.6,32.7l3,3c0.1-0.1,0.2-0.3,0.2-0.4l-3-3L120.6,32.7z">
  </path>
  <path class="st1" d="M115,37l4.1,4.1c0.1-0.1,0.2-0.2,0.3-0.3l-4.1-4.1L115,37z">
  </path>
  <path class="st1" d="M116.5,35.9l3.9,3.9l0.3-0.3l-3.8-3.8C116.7,35.8,116.6,35.8,116.5,35.9z">
  </path>
  <path class="st1" d="M121.9,31.5l2.7,2.7c0.1-0.1,0.1-0.3,0.2-0.4l-2.5-2.5C122.1,31.3,122,31.4,121.9,31.5z">
  </path>
  <path class="st1" d="M124.2,28.9l1.7,1.7c0-0.2,0.1-0.3,0.1-0.5l-1.6-1.6C124.4,28.7,124.3,28.8,124.2,28.9z">
  </path>
  <path class="st1" d="M113.5,38l4.3,4.3c0.1-0.1,0.2-0.2,0.3-0.3l-4.3-4.3C113.8,37.8,113.7,37.9,113.5,38z">
  </path>
  <path class="st1" d="M123.1,30.2l2.2,2.2c0.1-0.1,0.1-0.3,0.2-0.5l-2.1-2.1L123.1,30.2z">
  </path>
  <path class="st1" d="M125.3,27.5l1.1,1.1c0-0.2,0.1-0.4,0.1-0.6l-0.9-0.9L125.3,27.5z">
  </path>
  <path class="st1" d="M119.2,33.8l3.3,3.3c0.1-0.1,0.2-0.2,0.3-0.3l-3.3-3.3C119.5,33.6,119.4,33.7,119.2,33.8z">
  </path>
  <path class="st1" d="M117.9,34.9l3.6,3.7l0.3-0.3l-3.6-3.6L117.9,34.9z">
  </path>
  <path class="st1" d="M106.2,62.7L106.2,62.7z">
  </path>
  <path class="st1" d="M105.4,63.7l-0.5-0.5l-0.4,0.2l0.6,0.6C105.2,63.9,105.3,63.8,105.4,63.7z">
  </path>
  <path class="st1" d="M104.2,65l-1.1-1l-0.4,0.2l1.2,1.2L104.2,65z">
  </path>
  <path class="st1" d="M99.6,65.3l-0.4,0.2l2.4,2.3c0.1-0.1,0.2-0.2,0.3-0.3L99.6,65.3z">
  </path>
  <path class="st1" d="M92,68.2l3.9,3.9l0.4-0.2l-3.8-3.8L92,68.2z">
  </path>
  <path class="st1" d="M90.2,68.9l4.1,4.1l0.4-0.2l-4-4C90.5,68.8,90.3,68.9,90.2,68.9z">
  </path>
  <path class="st1" d="M97.4,66.2l2.8,2.8c0.1-0.1,0.2-0.2,0.3-0.3L97.8,66C97.7,66.1,97.5,66.1,97.4,66.2z">
  </path>
  <path class="st1" d="M95.6,66.9l3.3,3.2l0.3-0.3L96,66.7L95.6,66.9z">
  </path>
  <path class="st1" d="M93.8,67.6l3.6,3.6c0.1-0.1,0.2-0.2,0.4-0.2l-3.5-3.5L93.8,67.6z">
  </path>
  <path class="st1" d="M103,66.3l-1.7-1.7l-0.5,0.2l1.8,1.8L103,66.3z">
  </path>
  <path class="st1" d="M69.4,77.8l3.5,3.5c0.2-0.1,0.3-0.1,0.5-0.2l-3.6-3.5C69.7,77.6,69.6,77.7,69.4,77.8z">
  </path>
  <path class="st1" d="M88.4,69.6l4.3,4.2c0.1-0.1,0.3-0.1,0.4-0.2l-4.2-4.2C88.7,69.5,88.5,69.5,88.4,69.6z">
  </path>
  <path class="st1" d="M71.3,76.8L71.3,76.8l-0.3,0.2l3.8,3.7l0.5-0.1l-3.8-3.8L71.3,76.8z">
  </path>
  <path class="st1" d="M72.7,76.1l4,4l0.5-0.2l-4.1-4.1C73,76,72.8,76,72.7,76.1z">
  </path>
  <path class="st1" d="M86.6,70.3l4.4,4.4l0.4-0.2l-4.4-4.3L86.6,70.3z">
  </path>
  <path class="st1" d="M66.2,79.5l2.8,2.8l0.5-0.1l-2.9-2.9L66.2,79.5z">
  </path>
  <path class="st1" d="M74.4,75.3l4.2,4.2l0.5-0.2l-4.2-4.2L74.4,75.3z">
  </path>
  <path class="st1" d="M81.3,72.4l4.5,4.5l0.4-0.2l-4.5-4.5C81.6,72.2,81.4,72.3,81.3,72.4z">
  </path>
  <path class="st1" d="M64.6,80.3l2.5,2.5l0.5-0.1L65,80.1L64.6,80.3z">
  </path>
  <path class="st1" d="M83,71.7l4.5,4.5L88,76l-4.5-4.5L83,71.7z">
  </path>
  <path class="st1" d="M79.5,73.1l4.4,4.5l0.4-0.2L80,72.9L79.5,73.1z">
  </path>
  <path class="st1" d="M77.8,73.8l4.4,4.4l0.5-0.2l-4.4-4.4L77.8,73.8z">
  </path>
  <path class="st1" d="M76.1,74.5l4.3,4.3l0.5-0.2l-4.3-4.3L76.1,74.5z">
  </path>
  <path class="st1" d="M67.8,78.6l3.2,3.2l0.5-0.1l-3.3-3.3L67.8,78.6z">
  </path>
  <path class="st1" d="M55.6,91.1l1.8,1.8c0.1-0.2,0.1-0.3,0.2-0.5l-1.8-1.8C55.7,90.8,55.6,90.9,55.6,91.1z">
  </path>
  <path class="st1" d="M56.3,89.3l1.7,1.7c0-0.2,0.1-0.3,0.1-0.5l-1.7-1.7C56.4,89,56.4,89.2,56.3,89.3z">
  </path>
  <path class="st1" d="M54.8,92.8l1.9,1.9c0.1-0.1,0.1-0.3,0.2-0.4L55,92.3C54.9,92.5,54.9,92.6,54.8,92.8z">
  </path>
  <path class="st1" d="M63,81.2l2.1,2.1l0.5-0.1L63.4,81L63,81.2z">
  </path>
  <path class="st1" d="M60,83.2l1,1l0.5-0.1l-1.1-1.2L60,83.2z">
  </path>
  <path class="st1" d="M61.5,82.2l1.5,1.5l0.5-0.1l-1.7-1.7L61.5,82.2z">
  </path>
  <path class="st1" d="M58.7,84.3l0.2,0.2c0.2,0,0.3-0.1,0.5-0.1L59,84L58.7,84.3z">
  </path>
  <path class="st1" d="M57.8,85.6c0,0,0,0.1-0.1,0.2l1,1c0-0.2,0-0.4,0-0.6l-0.8-0.8C57.9,85.4,57.9,85.5,57.8,85.6z">
  </path>
  <path class="st1" d="M84.8,71l4.4,4.5c0.1-0.1,0.3-0.1,0.4-0.2l-4.4-4.5L84.8,71z">
  </path>
  <path class="st1" d="M57,87.6l1.5,1.5c0-0.2,0.1-0.4,0.1-0.5l-1.4-1.4C57.1,87.3,57.1,87.4,57,87.6z">
  </path>
  <path class="st1" d="M31.9,120.9l0.4,0.4c0.1-0.1,0.2-0.3,0.2-0.4l-0.3-0.3L31.9,120.9z">
  </path>
  <path class="st1" d="M30.6,122.1l0.9,0.8c0.1-0.1,0.1-0.3,0.2-0.4l-0.7-0.8C30.8,121.9,30.7,122,30.6,122.1z">
  </path>
  <path class="st1" d="M26.3,127.7l1.6,1.6c0.1-0.1,0.2-0.3,0.2-0.4l-1.6-1.6C26.5,127.5,26.4,127.6,26.3,127.7z">
  </path>
  <path class="st1" d="M28.3,124.8l1.4,1.4c0.1-0.1,0.1-0.3,0.2-0.4l-1.3-1.3C28.5,124.6,28.4,124.7,28.3,124.8z">
  </path>
  <path class="st1" d="M29.4,123.4l1.1,1.2l0.2-0.4l-1.1-1.1L29.4,123.4z">
  </path>
  <path class="st1" d="M27.3,126.2l1.5,1.5c0.1-0.1,0.1-0.3,0.2-0.4l-1.5-1.5L27.3,126.2z">
  </path>
  <path class="st1" d="M91.6,121.8l-0.4-0.2l-1.2,1.2l0.3,0.3L91.6,121.8z">
  </path>
  <path class="st1" d="M91.5,124.4l1.5-1.5l-0.3-0.3l-1.5,1.4C91.4,124.1,91.4,124.2,91.5,124.4z">
  </path>
  <path class="st1" d="M92.5,125.9l1.7-1.8l-0.3-0.4l-1.7,1.7L92.5,125.9z">
  </path>
  <path class="st1" d="M93.9,126.9l1-1c0-0.2-0.1-0.3-0.2-0.5l-1.3,1.3L93.9,126.9z">
  </path>
  <path class="st1" d="M90,121l-0.5-0.2l-1,1l0.4,0.2L90,121z">
  </path>
  <path class="st1" d="M86,120c-0.2,0-0.4,0-0.5-0.1l-0.3,0.3l0.4,0.2L86,120z">
  </path>
  <path class="st1" d="M89,117l1-0.9c-0.1-0.2-0.1-0.3-0.2-0.4l-1.4,1.4H89z">
  </path>
  <path class="st1" d="M88.1,120.4l-0.5-0.1l-0.7,0.7l0.4,0.2L88.1,120.4z">
  </path>
  <path class="st1" d="M84.1,112.1l-0.5-0.1l-0.5,0.4c0.1,0.1,0.2,0.2,0.3,0.3L84.1,112.1z">
  </path>
  <path class="st1" d="M85.9,112.7l-0.4-0.2l-0.9,0.9l0.3,0.3L85.9,112.7z">
  </path>
  <path class="st1" d="M86.1,115l1.5-1.5l-0.4-0.2l-1.4,1.4C85.9,114.8,86,114.9,86.1,115z">
  </path>
  <path class="st1" d="M87.1,116.5l1.9-1.9c-0.1-0.1-0.2-0.2-0.3-0.3l-1.8,1.8L87.1,116.5z">
  </path>
  <path class="st1" d="M51.2,96.6l0.5,0.5c0.2,0,0.5,0.1,0.7,0.1l-0.8-0.8C51.5,96.5,51.4,96.6,51.2,96.6z">
  </path>
  <path class="st1" d="M52.8,95.7l1.4,1.3c0.1,0,0.3-0.1,0.5-0.2l-1.5-1.5C53,95.5,52.9,95.6,52.8,95.7z">
  </path>
 </g>
</svg>